<svg width="32" height="32" viewBox="0 0 32 32" fill="none" xmlns="http://www.w3.org/2000/svg">
<path d="M7.05752 7.05752C7.57822 6.53682 8.42244 6.53682 8.94313 7.05752L16.0003 14.1147L23.0575 7.05752C23.5782 6.53682 24.4224 6.53682 24.9431 7.05752C25.4638 7.57822 25.4638 8.42244 24.9431 8.94313L17.8859 16.0003L24.9431 23.0575C25.4638 23.5782 25.4638 24.4224 24.9431 24.9431C24.4224 25.4638 23.5782 25.4638 23.0575 24.9431L16.0003 17.8859L8.94313 24.9431C8.42244 25.4638 7.57822 25.4638 7.05752 24.9431C6.53682 24.4224 6.53682 23.5782 7.05752 23.0575L14.1147 16.0003L7.05752 8.94313C6.53682 8.42244 6.53682 7.57822 7.05752 7.05752Z" fill="#939393"/>
</svg>
